<?xml version="1.0"?>
<svg xmlns="http://www.w3.org/2000/svg" xmlns:xlink="http://www.w3.org/1999/xlink" xmlns:svgjs="http://svgjs.com/svgjs" version="1.1" width="712" height="712" x="0" y="0" viewBox="0 0 512 512" style="enable-background:new 0 0 512 512" xml:space="preserve" class=""><g>
<g xmlns="http://www.w3.org/2000/svg">
	<g>
		<path style="" d="M256,10c132.55,0,246,113.45,246,246S388.55,502,256,502S10,388.55,10,256S123.45,10,256,10z" fill="#ff765b" data-original="#ff765b"/>
		<path style="" d="M256,446c-101.385,0-190-88.284-190-190c0-101.385,88.284-190,190-190    c101.385,0,190,88.284,190,190C446,357.385,357.716,446,256,446z" fill="#f97050" data-original="#63d9b8" class=""/>
		<path style="" d="M256,146c60.65,0,110,49.35,110,110s-49.35,110-110,110s-110-49.35-110-110S195.35,146,256,146z" fill="#e73030" data-original="#ffd15e" class=""/>
		<path style="" d="M256,185.29c4.13,37.21,33.5,66.58,70.71,70.71c-18.61,2.06-35.25,10.44-47.76,22.95    c-12.51,12.51-20.89,29.15-22.95,47.76c-0.68-6.05-4.06-22.15-14.42-37.51c-10.36-15.38-27.7-30.02-56.29-33.2    C222.466,251.885,251.88,222.51,256,185.29z" fill="#ed4857" data-original="#ff6371" class=""/>
	</g>
	<g>
		<path d="M406,246L406,246c-5.523,0-10,4.477-10,10v0c0,5.523,4.477,10,10,10l0,0c5.523,0,10-4.477,10-10v0    C416,250.477,411.523,246,406,246z" fill="#f13636" data-original="#000000" style="" class=""/>
		<path d="M377.24,186L377.24,186c2.761,4.783,8.877,6.421,13.66,3.66l0,0c4.783-2.761,6.421-8.877,3.66-13.66v0    c-2.761-4.783-8.877-6.421-13.66-3.66l0,0C376.117,175.101,374.479,181.217,377.24,186z" fill="#f13636" data-original="#000000" style="" class=""/>
		<path d="M380.9,339.66L380.9,339.66c4.783,2.761,10.899,1.123,13.66-3.66v0c2.761-4.783,1.123-10.899-3.66-13.66l0,0    c-4.783-2.761-10.899-1.123-13.66,3.66v0C374.479,330.783,376.117,336.899,380.9,339.66z" fill="#f13636" data-original="#000000" style="" class=""/>
		<path d="M322.34,121.1L322.34,121.1c-2.761,4.783-1.123,10.899,3.66,13.66l0,0c4.783,2.761,10.898,1.123,13.66-3.66l0,0    c2.761-4.783,1.123-10.898-3.66-13.66l0,0C331.217,114.679,325.102,116.317,322.34,121.1z" fill="#f13636" data-original="#000000" style="" class=""/>
		<path d="M322.34,390.9L322.34,390.9c2.762,4.783,8.877,6.422,13.66,3.66h0c4.783-2.761,6.421-8.877,3.66-13.66l0,0    c-2.761-4.783-8.877-6.421-13.66-3.66h0C321.217,380.001,319.579,386.117,322.34,390.9z" fill="#f13636" data-original="#000000" style="" class=""/>
		<path d="M256,416L256,416c5.523,0,10-4.477,10-10l0,0c0-5.523-4.477-10-10-10h0c-5.523,0-10,4.477-10,10l0,0    C246,411.523,250.477,416,256,416z" fill="#f13636" data-original="#000000" style="" class=""/>
		<path d="M256,96L256,96c-5.523,0-10,4.477-10,10v0c0,5.523,4.477,10,10,10h0c5.523,0,10-4.477,10-10v0    C266,100.477,261.523,96,256,96z" fill="#f13636" data-original="#000000" style="" class=""/>
		<path d="M251,74.66c4.78,2.76,10.9,1.12,13.66-3.66c2.71-4.664,1.208-10.857-3.66-13.66c-4.78-2.76-10.9-1.12-13.66,3.66    C244.57,65.818,246.255,71.929,251,74.66z" fill="#f13636" data-original="#000000" style="" class=""/>
		<path d="M189.66,121.1L189.66,121.1c-2.761-4.783-8.877-6.422-13.66-3.66l0,0c-4.783,2.761-6.421,8.877-3.66,13.66l0,0    c2.761,4.783,8.877,6.421,13.66,3.66l0,0C190.783,131.999,192.421,125.883,189.66,121.1z" fill="#f13636" data-original="#000000" style="" class=""/>
		<path d="M189.66,390.9L189.66,390.9c2.761-4.783,1.123-10.899-3.66-13.66h0c-4.783-2.761-10.899-1.123-13.66,3.66l0,0    c-2.761,4.783-1.123,10.898,3.66,13.66h0C180.783,397.321,186.898,395.683,189.66,390.9z" fill="#f13636" data-original="#000000" style="" class=""/>
		<path d="M131.1,172.34L131.1,172.34c-4.783-2.761-10.899-1.123-13.66,3.66l0,0c-2.761,4.783-1.123,10.899,3.66,13.66l0,0    c4.783,2.761,10.899,1.123,13.66-3.66l0,0C137.521,181.217,135.883,175.101,131.1,172.34z" fill="#f13636" data-original="#000000" style="" class=""/>
		<path d="M134.76,326L134.76,326c-2.761-4.783-8.877-6.421-13.66-3.66l0,0c-4.783,2.761-6.421,8.877-3.66,13.66l0,0    c2.761,4.783,8.877,6.421,13.66,3.66l0,0C135.883,336.899,137.521,330.783,134.76,326z" fill="#f13636" data-original="#000000" style="" class=""/>
		<path d="M106,266L106,266c5.523,0,10-4.477,10-10v0c0-5.523-4.477-10-10-10h0c-5.523,0-10,4.477-10,10v0    C96,261.523,100.477,266,106,266z" fill="#f13636" data-original="#000000" style="" class=""/>
		<path d="M256,0C117.987,0,0,117.814,0,256c0,138.013,117.814,256,256,256c137.976,0,256-117.798,256-256    C512,117.987,394.186,0,256,0z M256,492C128.075,492,20,383.925,20,256S128.075,20,256,20s236,108.075,236,236    S383.925,492,256,492z" fill="#f13636" data-original="#000000" style="" class=""/>
		<path d="M297.871,60.411c-5.407-1.154-10.716,2.289-11.87,7.689s2.288,10.715,7.689,11.869C377.007,97.779,436,170.663,436,256    c0,98.786-81.948,181.135-182.323,179.981C156.4,434.751,76,354.047,76,256c0-85.202,58.865-158.201,142.33-176.041    c5.401-1.154,8.844-6.469,7.689-11.869c-1.154-5.401-6.474-8.846-11.869-7.689C122.402,80.011,56,161.695,56,256    c0,109.052,88.42,200,200,200c109.052,0,200-88.42,200-200C456,160.641,388.554,79.797,297.871,60.411z" fill="#f13636" data-original="#000000" style="" class=""/>
		<path d="M136,256c0,66.168,53.832,120,120,120s120-53.832,120-120s-53.832-120-120-120S136,189.832,136,256z M356,256    c0,55.141-44.859,100-100,100s-100-44.859-100-100s44.859-100,100-100S356,200.859,356,256z" fill="#f13636" data-original="#000000" style="" class=""/>
		<path d="M255.998,175.29c-5.096,0.001-9.377,3.834-9.938,8.9c-3.581,32.35-29.172,58.251-61.87,61.87    c-5.065,0.561-8.899,4.841-8.9,9.937c-0.001,5.097,3.83,9.378,8.895,9.941c37.825,4.207,58.823,34.702,61.878,61.888    c0.568,5.06,4.847,8.884,9.938,8.884c0.003,0,0.006,0,0.009,0c5.094-0.004,9.37-3.837,9.931-8.9    c3.581-32.35,29.172-58.251,61.87-61.87c5.066-0.561,8.899-4.842,8.9-9.938c0.001-5.097-3.831-9.379-8.896-9.941    c-32.792-3.639-58.235-29.082-61.874-61.874c-0.563-5.064-4.844-8.896-9.939-8.896C256,175.29,255.999,175.29,255.998,175.29z     M293.403,255.999c-15.678,8.299-28.896,21.177-37.57,37.719c-8.358-16.321-20.62-29.478-36.803-37.947    c15.789-8.469,28.584-21.33,36.971-37.174C264.245,234.172,277.001,247.317,293.403,255.999z" fill="#f13636" data-original="#000000" style="" class=""/>
	</g>
</g>















</g></svg>
