<?xml version="1.0" standalone="no"?>
<!DOCTYPE svg PUBLIC "-//W3C//DTD SVG 20010904//EN"
 "http://www.w3.org/TR/2001/REC-SVG-20010904/DTD/svg10.dtd">
<svg version="1.0" xmlns="http://www.w3.org/2000/svg"
 width="290.000000pt" height="1740.000000pt" viewBox="0 0 290.000000 1740.000000"
 preserveAspectRatio="xMidYMid meet">

<g transform="translate(0.000000,1740.000000) scale(0.100000,-0.100000)"
fill="#000000" stroke="none">
<path d="M410 17317 c0 -9 8 -39 19 -66 l18 -48 -36 -28 c-33 -26 -34 -26 -13
-3 27 30 21 38 -32 38 -23 0 -55 4 -72 9 -30 9 -31 8 -20 -13 20 -38 41 -63
63 -74 21 -12 21 -14 8 -58 -8 -26 -25 -59 -39 -73 -32 -34 -32 -51 -1 -102
31 -48 51 -57 155 -65 l80 -7 20 -54 c11 -29 20 -58 20 -63 0 -20 19 -9 22 13
2 12 4 -26 5 -84 l1 -106 -65 -47 c-36 -26 -62 -41 -58 -34 4 7 -3 2 -15 -12
-12 -14 -19 -18 -15 -10 4 10 2 9 -8 -2 -8 -10 -17 -15 -20 -11 -4 3 -7 1 -7
-5 0 -7 -5 -12 -11 -12 -20 0 -148 -91 -169 -120 -12 -17 -19 -41 -18 -60 2
-31 3 -32 43 -26 22 4 63 21 90 38 149 94 222 135 335 189 69 33 132 64 140
68 22 11 112 14 119 4 3 -4 32 -28 64 -52 97 -74 187 -187 187 -235 0 -9 -11
-23 -25 -32 -29 -19 -33 -55 -8 -79 21 -22 91 -14 110 11 9 12 13 56 13 139 0
116 -2 125 -31 183 l-30 61 -117 4 c-64 2 -36 3 63 1 99 -2 218 -9 265 -15
114 -16 269 -6 345 20 32 12 63 20 68 18 20 -6 -117 -59 -168 -64 l-54 -6 29
-41 c17 -25 45 -50 69 -61 23 -10 41 -22 41 -26 0 -5 -15 -16 -32 -25 -68 -35
-140 -89 -153 -114 -15 -29 -10 -42 21 -58 18 -10 31 -6 80 26 33 21 109 59
169 86 139 61 140 62 120 109 -17 42 -19 90 -5 117 9 16 15 18 37 9 71 -27
398 -119 440 -124 52 -6 97 -62 104 -130 2 -22 -4 -37 -24 -57 -30 -30 -36
-72 -12 -82 9 -3 36 -3 61 1 92 12 102 102 32 282 -42 106 -72 151 -105 151
-10 0 -27 7 -37 15 -10 8 -23 12 -28 9 -11 -7 -79 36 -73 46 3 5 0 12 -6 16
-8 4 -9 3 -5 -4 28 -46 -134 70 -243 173 -53 50 -113 101 -133 114 -21 12 -38
25 -38 28 0 5 50 -24 110 -64 19 -13 41 -23 50 -23 8 0 75 -43 148 -94 155
-109 257 -157 352 -163 56 -4 69 -2 93 17 44 35 32 50 -63 76 -138 36 -190 60
-357 160 -105 63 -181 102 -228 115 -38 11 -81 25 -95 30 -59 21 -223 51 -325
58 -115 8 -260 -2 -281 -20 -18 -15 -178 -39 -262 -39 -80 0 -161 16 -177 36
-5 7 -53 31 -105 55 -52 23 -102 48 -111 55 -9 8 -19 11 -22 8 -10 -10 -33 12
-58 54 l-21 37 23 -20 c13 -11 8 -3 -11 18 -19 21 -60 50 -90 64 -30 15 -65
35 -77 46 -20 18 -23 18 -23 4z m16 -294 c6 -2 14 3 17 12 4 8 2 15 -3 15 -6
0 -10 8 -10 17 0 15 3 15 21 -4 28 -28 19 -53 -20 -53 -37 0 -45 12 -35 53 l8
32 6 -34 c3 -19 10 -36 16 -38z m334 -44 c-19 -12 -44 -29 -54 -38 -18 -15
-18 -15 -7 7 7 13 27 30 44 37 48 21 57 18 17 -6z m1807 -871 c-3 -8 -6 -5 -6
6 -1 11 2 17 5 13 3 -3 4 -12 1 -19z"/>
<path d="M2245 16670 c10 -11 20 -20 23 -20 3 0 -3 9 -13 20 -10 11 -20 20
-23 20 -3 0 3 -9 13 -20z"/>
<path d="M2290 16636 c0 -3 9 -10 20 -16 11 -6 20 -8 20 -6 0 3 -9 10 -20 16
-11 6 -20 8 -20 6z"/>
<path d="M576 16543 c-6 -14 -5 -15 5 -6 7 7 10 15 7 18 -3 3 -9 -2 -12 -12z"/>
<path d="M1508 16453 c7 -3 16 -2 19 1 4 3 -2 6 -13 5 -11 0 -14 -3 -6 -6z"/>
<path d="M394 15885 c-6 -32 -3 -57 12 -107 3 -11 0 -18 -9 -18 -8 0 -22 -9
-32 -20 -10 -11 -20 -18 -23 -15 -3 3 2 13 11 23 19 21 15 24 -65 56 -36 14
-38 14 -38 -5 0 -25 16 -57 42 -85 18 -21 19 -24 3 -78 -11 -37 -25 -62 -41
-72 -30 -20 -30 -45 -3 -94 29 -51 52 -61 150 -69 l82 -6 17 -65 c17 -68 52
-144 71 -155 6 -4 14 -17 19 -29 8 -20 9 -20 21 9 10 24 13 26 16 12 7 -27 -2
-42 -39 -68 l-33 -23 20 25 c46 58 -136 -126 -227 -229 -82 -92 -99 -117 -96
-140 2 -19 9 -28 25 -30 18 -3 22 0 17 15 -5 17 -5 17 9 1 8 -10 18 -18 22
-18 4 0 37 28 73 61 37 34 94 80 127 102 33 22 80 57 105 77 55 45 143 100
158 100 7 0 12 6 12 13 0 7 7 4 15 -7 14 -19 15 -19 15 7 0 22 5 27 25 27 14
0 25 4 25 9 0 27 429 13 618 -20 44 -8 70 -8 85 -1 12 6 65 18 117 27 109 20
122 24 115 35 -3 5 4 6 15 3 11 -3 20 -9 20 -14 0 -14 -38 -25 -110 -33 -36
-4 -75 -10 -87 -13 l-23 -5 20 -28 c21 -29 39 -97 40 -145 0 -42 -50 -99 -104
-120 -46 -18 -72 -57 -60 -90 9 -22 87 -19 132 4 21 11 64 24 97 30 73 13 94
38 112 126 22 104 52 191 74 211 l21 19 -39 17 c-51 24 -37 21 240 -58 154
-44 233 -71 225 -77 -9 -5 -5 -6 8 -2 29 8 213 -87 268 -138 23 -21 35 -35 27
-31 -8 4 10 -24 41 -62 61 -76 91 -90 123 -54 24 26 23 78 -1 115 -10 15 -79
74 -153 131 -75 58 -154 119 -176 136 -22 18 -34 25 -27 16 13 -16 11 -16 -25
-3 -21 7 -57 18 -81 25 -47 12 -113 71 -169 150 -18 25 -58 73 -89 108 -66 72
-64 83 3 17 25 -25 48 -44 50 -41 3 2 48 -15 101 -38 195 -86 321 -117 401
-98 40 9 64 38 43 51 -8 4 -39 14 -70 20 -74 16 -174 48 -237 77 -205 92 -360
149 -456 168 -41 8 -117 24 -169 36 -139 31 -298 40 -428 24 -68 -8 -164 -11
-267 -7 -88 3 -195 6 -238 6 -67 2 -80 5 -95 23 -23 30 -95 64 -119 58 -14 -4
-29 5 -51 31 -32 35 -43 63 -20 49 7 -4 8 -3 4 5 -4 6 -11 9 -16 6 -5 -3 -14
5 -21 17 -11 22 -11 22 7 9 10 -7 -1 5 -26 27 -25 23 -64 62 -87 87 l-42 46
-7 -36z m-19 -295 c20 0 30 21 14 31 -7 4 -10 11 -6 15 8 9 36 -25 37 -43 0
-8 -14 -13 -40 -13 -43 0 -44 1 -32 51 l7 34 3 -37 c2 -24 8 -38 17 -38z"/>
<path d="M620 15675 c13 -14 26 -25 28 -25 3 0 -5 11 -18 25 -13 14 -26 25
-28 25 -3 0 5 -11 18 -25z"/>
<path d="M2210 15286 c0 -2 8 -10 18 -17 15 -13 16 -12 3 4 -13 16 -21 21 -21
13z"/>
<path d="M2285 15200 c10 -11 20 -20 23 -20 3 0 -3 9 -13 20 -10 11 -20 20
-23 20 -3 0 3 -9 13 -20z"/>
<path d="M2332 15144 c15 -15 30 -26 33 -23 2 3 -10 16 -28 29 l-32 23 27 -29z"/>
<path d="M969 15074 c110 -29 234 -113 348 -234 61 -65 70 -85 50 -108 -9 -10
-18 -29 -19 -43 -3 -21 2 -24 31 -27 77 -8 111 32 111 133 0 39 -7 62 -28 96
-31 48 -90 105 -140 135 -18 10 -32 23 -32 29 0 11 -247 36 -335 34 l-40 0 54
-15z"/>
<path d="M1343 15053 c9 -2 23 -2 30 0 6 3 -1 5 -18 5 -16 0 -22 -2 -12 -5z"/>
<path d="M1468 15053 c6 -2 18 -2 25 0 6 3 1 5 -13 5 -14 0 -19 -2 -12 -5z"/>
<path d="M2178 15003 c7 -3 16 -2 19 1 4 3 -2 6 -13 5 -11 0 -14 -3 -6 -6z"/>
<path d="M2218 14993 c7 -3 16 -2 19 1 4 3 -2 6 -13 5 -11 0 -14 -3 -6 -6z"/>
<path d="M2298 14973 c7 -3 16 -2 19 1 4 3 -2 6 -13 5 -11 0 -14 -3 -6 -6z"/>
<path d="M2580 14857 c0 -3 12 -12 26 -22 15 -9 23 -12 20 -6 -7 11 -46 35
-46 28z"/>
<path d="M2640 14816 c0 -2 8 -10 18 -17 15 -13 16 -12 3 4 -13 16 -21 21 -21
13z"/>
<path d="M426 14412 c-2 -4 4 -32 14 -62 10 -30 18 -55 17 -55 -1 -1 -15 -9
-32 -20 l-30 -18 19 21 c22 25 16 29 -59 35 -27 2 -58 7 -67 11 -16 7 -16 6
-3 -21 16 -32 47 -67 70 -80 14 -8 14 -14 0 -61 -10 -33 -25 -58 -40 -68 -32
-21 -31 -44 0 -95 31 -48 48 -55 156 -66 l82 -8 16 -47 c9 -26 20 -50 25 -55
5 -5 6 -2 1 6 -5 9 -4 12 2 8 19 -12 63 -155 63 -204 0 -30 -9 -68 -24 -100
-31 -66 -76 -132 -76 -113 -1 10 -5 8 -13 -6 -34 -59 -100 -122 -133 -128 -44
-9 -70 -45 -54 -75 9 -18 20 -21 72 -21 l62 0 160 166 c89 91 166 178 173 192
6 15 12 21 12 15 2 -23 21 -14 21 9 l0 23 23 -25 c53 -60 115 -138 136 -172
36 -60 74 -85 155 -103 95 -21 140 -18 144 12 4 26 -30 51 -81 60 -25 4 -43
14 -55 32 -35 51 -86 184 -83 218 0 5 -14 13 -32 20 -30 11 -28 12 37 12 38 1
106 -5 150 -13 45 -8 113 -18 151 -22 49 -5 63 -9 46 -13 -19 -5 230 -6 284
-1 6 0 51 -14 100 -31 87 -32 95 -33 265 -34 96 -1 181 -3 189 -3 7 -1 45 -33
85 -71 39 -37 89 -81 112 -97 22 -16 41 -33 41 -39 2 -15 36 -23 56 -13 33 17
20 55 -35 105 -29 27 -93 87 -141 135 -68 67 -99 90 -131 99 -74 19 -111 31
-124 42 -7 5 -29 40 -49 76 -38 67 -93 151 -122 185 -15 18 -15 18 9 12 98
-28 164 -53 276 -106 178 -84 244 -103 347 -98 59 2 93 9 122 24 52 27 59 54
13 54 -113 0 -325 57 -528 142 -80 34 -183 74 -230 91 -47 16 -88 33 -91 39
-3 5 -46 16 -95 25 -77 13 -106 14 -214 3 -230 -23 -416 -28 -559 -14 -73 8
-137 11 -141 9 -5 -3 -47 13 -93 35 -47 22 -93 37 -101 34 -10 -4 -27 6 -46
24 -30 30 -41 60 -17 46 7 -4 9 -3 4 2 -5 5 -14 9 -20 9 -7 1 -11 6 -10 13 3
13 -73 72 -92 72 -7 0 -28 11 -48 25 -20 13 -38 21 -41 17z m15 -292 c14 0 23
24 11 28 -7 2 -12 11 -12 20 0 13 7 10 28 -11 23 -23 25 -29 12 -37 -19 -12
-67 -13 -74 -1 -3 5 -3 24 1 42 l7 34 10 -37 c5 -21 13 -38 17 -38z"/>
<path d="M660 14235 c13 -14 26 -25 28 -25 3 0 -5 11 -18 25 -13 14 -26 25
-28 25 -3 0 5 -11 18 -25z"/>
<path d="M633 13645 c0 -27 2 -38 4 -22 2 15 2 37 0 50 -2 12 -4 0 -4 -28z"/>
<path d="M1123 13623 c9 -2 25 -2 35 0 9 3 1 5 -18 5 -19 0 -27 -2 -17 -5z"/>
<path d="M1258 13613 c6 -2 18 -2 25 0 6 3 1 5 -13 5 -14 0 -19 -2 -12 -5z"/>
<path d="M1373 13603 c9 -2 23 -2 30 0 6 3 -1 5 -18 5 -16 0 -22 -2 -12 -5z"/>
<path d="M1715 13589 c-11 -4 -45 -8 -75 -9 -40 -2 -48 -4 -28 -9 26 -6 168
-132 168 -149 0 -4 -13 -29 -29 -54 -20 -31 -46 -55 -83 -74 -44 -24 -53 -34
-56 -60 l-3 -31 67 -6 c51 -5 70 -3 78 7 6 8 40 38 76 67 121 98 150 132 150
177 0 22 3 47 6 56 5 12 -1 16 -24 16 -56 0 -136 22 -182 50 -32 19 -51 25
-65 19z"/>
<path d="M1528 13583 c6 -2 18 -2 25 0 6 3 1 5 -13 5 -14 0 -19 -2 -12 -5z"/>
<path d="M2203 13523 c9 -2 25 -2 35 0 9 3 1 5 -18 5 -19 0 -27 -2 -17 -5z"/>
<path d="M2138 13513 c7 -3 16 -2 19 1 4 3 -2 6 -13 5 -11 0 -14 -3 -6 -6z"/>
<path d="M571 13463 c-10 -26 -10 -27 4 -9 8 11 15 23 15 28 0 15 -7 8 -19
-19z"/>
<path d="M2310 13466 c0 -2 14 -14 30 -26 17 -12 30 -19 30 -16 0 2 -13 14
-30 26 -16 12 -30 19 -30 16z"/>
<path d="M2380 13417 c0 -2 15 -16 33 -33 l32 -29 -29 33 c-28 30 -36 37 -36
29z"/>
<path d="M2450 13356 c0 -3 9 -10 20 -16 11 -6 20 -8 20 -6 0 3 -9 10 -20 16
-11 6 -20 8 -20 6z"/>
<path d="M350 12937 c0 -9 8 -39 19 -66 l18 -48 -36 -28 c-33 -26 -34 -26 -13
-4 12 14 22 28 22 32 0 4 -24 7 -54 7 -30 0 -67 4 -81 10 l-26 10 23 -41 c12
-23 36 -48 51 -56 17 -8 26 -20 23 -28 -2 -7 -8 -29 -11 -48 -4 -20 -18 -45
-31 -58 -30 -28 -30 -57 -1 -100 31 -46 61 -59 134 -59 57 0 66 -3 100 -34 21
-18 56 -45 77 -60 46 -31 136 -113 136 -125 0 -4 14 -20 30 -36 20 -19 30 -39
31 -59 l1 -31 9 30 c5 19 6 5 2 -40 -6 -90 -64 -215 -123 -269 -34 -31 -41
-42 -38 -69 3 -31 4 -32 60 -35 l57 -3 41 71 c23 38 44 70 47 70 2 0 44 -11
93 -25 114 -32 128 -32 141 2 14 38 -15 75 -70 87 -35 8 -41 13 -41 34 0 19
44 178 54 199 6 10 173 20 221 13 33 -5 101 -15 152 -21 50 -7 90 -17 87 -21
-3 -4 1 -8 9 -8 8 0 30 -2 48 -5 28 -4 30 -3 9 4 -15 5 17 6 80 3 l104 -5 -42
48 c-23 26 -42 53 -41 59 0 6 6 3 12 -8 31 -47 52 -68 90 -87 34 -18 53 -21
115 -17 41 3 68 1 60 -3 -18 -12 -125 -11 -165 0 -59 17 -43 -5 29 -40 49 -24
87 -52 124 -92 48 -51 54 -63 54 -101 0 -39 -3 -44 -39 -64 -40 -23 -51 -39
-51 -73 0 -18 6 -20 77 -17 l77 3 16 55 c14 49 19 55 41 52 16 -2 32 5 44 18
17 19 18 26 7 63 -34 118 -36 140 -19 228 19 93 22 163 8 154 -5 -3 -12 -1
-16 5 -10 16 -47 12 -83 -10 -37 -23 -48 -25 -35 -7 5 6 10 46 10 87 1 58 0
67 -6 40 -6 -25 -9 -28 -10 -12 -2 33 -28 93 -54 121 l-22 24 27 -19 c15 -10
33 -31 40 -46 7 -16 17 -28 23 -28 5 0 47 -26 92 -59 165 -118 422 -223 508
-207 37 7 68 37 63 60 -2 11 -42 30 -114 55 -157 54 -329 134 -425 197 -100
67 -184 107 -269 129 -81 20 -240 32 -240 17 0 -11 -72 -24 -262 -47 -149 -18
-213 -19 -294 -5 -69 13 -237 60 -244 69 -14 18 -149 71 -165 64 -13 -4 -16
-3 -11 5 4 8 2 10 -7 6 -9 -3 -24 7 -39 28 -37 50 -44 62 -27 54 8 -4 1 4 -16
18 -16 14 -55 38 -85 52 -30 14 -63 33 -72 41 -16 15 -18 15 -18 0z m9 -266
c5 -24 9 -28 21 -20 11 8 12 12 3 16 -12 4 -19 33 -8 33 3 0 15 -10 27 -22 20
-20 20 -22 3 -35 -11 -7 -29 -13 -42 -13 -20 0 -23 5 -23 42 0 46 9 45 19 -1z
m258 -293 c-3 -8 -6 -5 -6 6 -1 11 2 17 5 13 3 -3 4 -12 1 -19z m16 -38 c3
-11 1 -18 -4 -14 -5 3 -9 12 -9 20 0 20 7 17 13 -6z m1329 -232 c-5 -71 -10
-77 -11 -15 0 31 2 57 7 57 4 0 6 -19 4 -42z m-1308 -354 c3 -8 2 -12 -4 -9
-6 3 -10 10 -10 16 0 14 7 11 14 -7z"/>
<path d="M2000 12325 c-32 -18 -25 -18 25 0 22 8 31 14 20 14 -11 0 -31 -6
-45 -14z"/>
<path d="M1148 12163 c7 -3 16 -2 19 1 4 3 -2 6 -13 5 -11 0 -14 -3 -6 -6z"/>
<path d="M1213 12153 c9 -2 23 -2 30 0 6 3 -1 5 -18 5 -16 0 -22 -2 -12 -5z"/>
<path d="M1313 12143 c9 -2 25 -2 35 0 9 3 1 5 -18 5 -19 0 -27 -2 -17 -5z"/>
<path d="M1633 12113 c9 -2 25 -2 35 0 9 3 1 5 -18 5 -19 0 -27 -2 -17 -5z"/>
<path d="M300 11466 c0 -15 5 -47 11 -70 10 -40 9 -45 -15 -71 -14 -15 -26
-23 -26 -17 0 6 5 14 10 17 27 16 5 31 -67 44 l-42 8 15 -36 c8 -20 27 -48 41
-63 23 -24 25 -33 21 -87 -3 -39 -11 -67 -22 -80 -26 -28 -15 -61 35 -100 44
-36 51 -36 171 -15 36 6 40 4 90 -51 29 -31 79 -75 110 -98 l58 -40 -53 -61
c-84 -97 -109 -173 -77 -236 27 -53 45 -65 75 -52 29 14 40 48 32 106 -6 42
-5 44 36 73 58 42 126 75 137 68 6 -3 10 -1 10 5 0 13 -26 39 -114 115 -57 49
-96 100 -96 126 0 7 13 -7 29 -32 27 -42 105 -115 162 -153 35 -22 49 -79 49
-200 0 -102 -4 -112 -61 -141 -36 -19 -51 -47 -43 -80 6 -26 24 -35 24 -12 0
6 5 4 11 -5 15 -27 57 -22 88 10 30 29 75 158 107 302 9 41 23 81 32 88 13 11
52 12 182 8 115 -5 193 -3 258 7 89 13 92 13 107 -7 12 -16 11 -12 -2 14 -18
37 -45 142 -38 148 2 2 8 -13 14 -34 6 -22 26 -66 44 -98 37 -67 78 -95 155
-105 l47 -6 -45 -6 -45 -6 48 -1 c26 -1 47 -4 47 -7 0 -3 -7 -17 -16 -30 -20
-31 -44 -120 -44 -168 0 -47 36 -87 78 -87 43 0 52 18 49 96 -2 65 0 72 34
121 l36 51 37 -30 c40 -32 58 -63 74 -120 9 -32 7 -41 -14 -69 -13 -18 -24
-46 -24 -61 l0 -29 78 3 77 3 3 89 c3 93 -12 165 -50 241 -24 46 -78 111 -90
107 -4 -1 -8 8 -8 21 0 13 -6 29 -12 36 -11 11 -10 13 5 8 10 -4 16 -3 13 2
-8 12 -76 19 -76 7 0 -5 -3 -7 -6 -4 -3 4 2 18 11 32 25 38 3 154 -42 216
l-25 35 36 -37 c25 -27 36 -47 37 -70 1 -32 2 -32 8 -6 l6 27 75 -55 c149
-109 392 -214 495 -214 49 0 85 23 85 54 0 20 -11 27 -82 50 -176 59 -366 147
-468 216 -126 85 -241 126 -421 149 -89 12 -270 3 -468 -21 -53 -7 -113 -12
-133 -12 -22 0 -33 -3 -25 -8 29 -19 -44 -6 -104 18 -130 52 -201 73 -271 80
-83 8 -118 22 -141 57 -9 14 -49 41 -90 61 -41 21 -88 51 -106 68 l-31 30 0
-26z m215 -136 c11 -13 34 -31 50 -41 l30 -19 -27 0 c-18 0 -29 7 -33 20 -3
11 -26 34 -51 52 -24 17 -44 33 -44 35 0 9 57 -27 75 -47z m-135 -145 c0 -7
-13 -18 -30 -23 -26 -9 -31 -8 -41 9 -5 11 -8 28 -6 37 3 13 7 11 15 -10 12
-30 32 -38 32 -13 0 8 -4 15 -10 15 -5 0 -10 7 -10 15 0 14 3 13 25 -1 14 -9
25 -22 25 -29z m1641 -468 c-10 -9 -11 -8 -5 6 3 10 9 15 12 12 3 -3 0 -11 -7
-18z m-27 -42 c-9 -14 -19 -23 -22 -20 -5 4 26 45 35 45 2 0 -4 -11 -13 -25z
m-190 -301 c3 -8 2 -12 -4 -9 -6 3 -10 10 -10 16 0 14 7 11 14 -7z m61 -4 c-3
-5 -12 -10 -18 -10 -7 0 -6 4 3 10 19 12 23 12 15 0z"/>
<path d="M1063 10723 c9 -2 23 -2 30 0 6 3 -1 5 -18 5 -16 0 -22 -2 -12 -5z"/>
<path d="M1508 10723 c7 -3 16 -2 19 1 4 3 -2 6 -13 5 -11 0 -14 -3 -6 -6z"/>
<path d="M1620 10685 c13 -14 26 -25 28 -25 3 0 -5 11 -18 25 -13 14 -26 25
-28 25 -3 0 5 -11 18 -25z"/>
<path d="M861 10634 c0 -11 3 -14 6 -6 3 7 2 16 -1 19 -3 4 -6 -2 -5 -13z"/>
<path d="M861 10484 c0 -11 3 -14 6 -6 3 7 2 16 -1 19 -3 4 -6 -2 -5 -13z"/>
<path d="M242 9941 c5 -14 20 -40 34 -58 l24 -32 -26 -28 c-23 -24 -25 -25
-15 -5 7 13 10 26 7 29 -3 3 -32 0 -65 -7 -33 -7 -68 -10 -78 -6 -10 3 4 -14
30 -40 29 -28 54 -44 62 -40 21 8 20 -101 0 -128 -24 -32 -18 -65 19 -102 30
-30 40 -34 89 -34 29 0 68 5 86 11 28 10 40 7 109 -26 70 -34 202 -114 227
-138 16 -15 -67 31 -104 58 -40 30 -47 31 -54 8 -3 -11 -61 -47 -143 -88 -146
-74 -192 -111 -238 -188 -33 -58 -29 -77 18 -77 28 0 46 10 86 45 40 36 69 50
147 75 53 16 103 30 110 30 38 0 181 54 200 76 20 22 27 24 57 15 19 -5 37 -7
40 -5 3 2 4 1 1 -2 -2 -4 7 -20 21 -37 36 -42 62 -98 75 -158 6 -28 14 -47 18
-41 3 5 7 -15 8 -45 2 -45 -3 -63 -23 -92 -29 -43 -30 -53 -4 -69 21 -13 45
-8 35 8 -3 5 10 6 28 3 31 -5 36 -2 57 31 21 36 22 42 15 201 l-7 165 28 1 29
1 -30 9 c-18 5 28 6 113 3 171 -6 336 10 328 33 -13 33 -16 91 -7 133 9 44 9
43 8 -25 -1 -112 36 -167 148 -216 l45 -20 -66 -86 c-36 -48 -70 -98 -75 -111
-13 -33 -11 -76 3 -90 23 -23 47 -11 89 46 49 66 109 117 204 173 l67 39 66
-40 c86 -50 182 -126 182 -144 0 -7 -7 -19 -16 -26 -69 -58 -11 -100 97 -70
32 9 37 15 42 48 5 29 0 51 -23 101 -34 72 -118 191 -158 222 -15 11 -59 50
-99 85 -39 36 -83 74 -97 85 -24 19 -26 26 -26 100 0 97 -15 98 195 -11 173
-91 293 -130 396 -130 57 0 72 4 95 23 22 19 26 29 20 50 -7 30 -11 31 -139
47 -103 13 -191 44 -379 133 -248 119 -426 154 -681 138 -83 -6 -231 -15 -329
-22 -168 -10 -256 -6 -228 11 7 4 -6 10 -33 14 -25 4 -71 16 -102 27 -32 11
-89 21 -128 23 -42 2 -73 8 -75 15 -2 6 -13 9 -26 5 -17 -4 -32 5 -64 40 -31
34 -56 50 -95 61 -28 9 -71 21 -94 29 l-41 13 10 -26z m76 -271 c2 -2 7 2 12
10 6 9 3 18 -8 26 -24 17 -8 28 17 12 28 -17 23 -40 -11 -52 -34 -12 -35 -11
-42 39 l-6 40 17 -35 c10 -19 19 -37 21 -40z m1614 -248 c2 -92 7 -176 11
-187 4 -11 -1 -4 -10 15 -15 29 -18 61 -18 181 0 132 -2 149 -20 169 l-20 23
27 -17 26 -17 4 -167z m-1235 25 c14 -15 14 -17 2 -12 -16 6 -49 66 -49 88 1
7 8 -4 16 -23 8 -19 22 -43 31 -53z m113 -95 c19 -17 33 -32 30 -35 -3 -3 -27
15 -55 41 -53 48 -34 44 25 -6z m1155 -191 c-3 -12 -16 -26 -28 -32 l-22 -12
23 25 c12 13 22 30 22 38 0 7 3 11 6 7 3 -3 3 -15 -1 -26z"/>
<path d="M485 9860 c10 -11 20 -20 23 -20 3 0 -3 9 -13 20 -10 11 -20 20 -23
20 -3 0 3 -9 13 -20z"/>
<path d="M608 9813 c7 -3 16 -2 19 1 4 3 -2 6 -13 5 -11 0 -14 -3 -6 -6z"/>
<path d="M973 9733 c9 -2 23 -2 30 0 6 3 -1 5 -18 5 -16 0 -22 -2 -12 -5z"/>
<path d="M1600 9226 c0 -2 8 -10 18 -17 15 -13 16 -12 3 4 -13 16 -21 21 -21
13z"/>
<path d="M236 8457 c6 -22 43 -87 54 -97 3 -3 -5 -15 -17 -27 -27 -26 -31 -18
-5 10 17 20 16 20 -28 12 -25 -4 -65 -11 -90 -14 l-44 -6 44 -37 c24 -21 50
-38 57 -38 21 0 17 -102 -6 -128 -26 -31 -16 -65 30 -107 43 -39 62 -42 153
-24 31 7 58 10 60 8 2 -2 7 -31 10 -64 l7 -60 -73 -56 c-82 -62 -157 -109
-268 -166 -64 -32 -75 -42 -78 -66 -8 -72 56 -76 154 -10 165 111 300 180 442
227 88 30 107 47 76 72 -18 14 -18 15 3 4 12 -5 24 -14 28 -19 3 -5 31 -15 63
-21 31 -7 85 -18 119 -26 34 -8 67 -13 74 -12 7 2 13 -2 14 -9 0 -7 16 -34 35
-60 50 -67 118 -183 125 -213 5 -20 -1 -32 -25 -55 -55 -53 -32 -92 50 -82 28
3 55 9 60 12 28 17 2 208 -39 289 -11 20 -23 67 -26 104 l-7 67 -72 68 c-82
79 -60 75 26 -5 51 -46 58 -58 60 -93 l2 -41 200 2 200 3 56 -46 c30 -25 55
-49 55 -54 0 -5 5 -9 10 -10 24 -1 59 -49 36 -49 -14 0 -171 -103 -203 -133
-33 -30 -33 -34 -9 -67 19 -23 21 -24 58 -11 21 7 69 33 108 57 38 25 107 59
153 76 106 41 115 55 78 129 -31 64 -31 64 -5 202 20 106 22 188 4 245 -6 16
-3 22 9 22 27 0 137 -41 241 -89 128 -61 147 -68 225 -86 86 -19 169 -19 198
1 29 20 29 52 0 58 -152 30 -325 90 -503 176 -117 56 -360 87 -609 76 -322
-13 -491 -24 -508 -31 -22 -9 -76 9 -117 40 -35 25 -109 43 -120 29 -3 -5 -20
-19 -38 -31 -27 -20 -36 -21 -58 -11 -15 7 -21 14 -15 18 7 4 -18 10 -55 12
-55 5 -72 11 -96 34 -16 15 -29 24 -29 20 0 -4 10 -16 23 -27 12 -10 17 -18
11 -19 -5 0 -23 14 -40 32 -16 17 -22 28 -14 23 13 -7 13 -6 0 7 -16 16 -102
48 -130 48 -9 0 -33 9 -53 19 l-38 19 7 -21z m75 -277 c18 0 19 22 3 35 -16
12 -16 14 -3 15 9 0 23 -8 33 -19 19 -21 7 -37 -34 -43 -22 -3 -25 1 -27 32
l-2 35 12 -27 c6 -16 14 -28 18 -28z m249 -175 c17 -9 30 -18 30 -21 0 -2 -12
2 -27 9 -16 8 -35 17 -43 20 -10 4 -11 6 -2 6 7 1 26 -6 42 -14z m125 -99 c6
-5 -6 0 -25 12 -19 11 -41 31 -49 44 -13 21 9 3 74 -56z m183 5 c110 -56 140
-76 129 -87 -4 -4 -20 4 -35 18 -15 14 -67 46 -117 71 -49 26 -87 46 -82 46 4
1 51 -21 105 -48z m756 -104 c10 -15 15 -27 12 -27 -3 0 -15 15 -26 33 -14 23
-20 48 -19 87 l2 55 7 -60 c3 -33 15 -73 24 -88z"/>
<path d="M988 8283 c7 -3 16 -2 19 1 4 3 -2 6 -13 5 -11 0 -14 -3 -6 -6z"/>
<path d="M1971 8019 c-1 -33 -9 -93 -17 -132 -10 -48 -13 -91 -8 -127 4 -30 9
-49 11 -43 3 9 13 6 33 -9 25 -18 47 -22 157 -26 148 -5 184 -18 227 -81 30
-43 29 -75 -5 -99 -11 -7 -19 -25 -19 -39 0 -25 1 -25 60 -21 33 2 65 9 70 14
6 6 13 46 16 90 6 76 5 80 -22 115 -16 20 -38 54 -49 77 -11 23 -25 42 -31 42
-10 0 -242 135 -313 182 -19 13 -50 44 -69 71 -19 26 -35 47 -36 47 -2 0 -4
-27 -5 -61z"/>
<path d="M300 7083 c1 -15 9 -51 18 -79 l18 -50 -31 -30 -30 -29 18 27 c20 31
23 29 -75 47 -63 11 -64 -6 -3 -67 46 -45 46 -46 39 -99 -3 -29 -15 -64 -25
-77 -25 -32 -24 -49 8 -87 42 -50 82 -62 154 -47 45 9 67 9 89 1 17 -6 28 -7
24 -2 -17 28 24 1 83 -54 64 -59 109 -93 143 -109 10 -4 11 -7 2 -7 -17 -1
-111 66 -145 103 l-28 31 6 -30 c6 -33 -44 -148 -107 -242 -55 -82 -150 -190
-181 -203 -34 -16 -77 -65 -77 -90 0 -26 30 -40 83 -40 43 0 46 3 153 113 301
311 332 340 359 333 13 -3 68 -9 122 -12 54 -3 105 -7 113 -10 29 -8 -25 28
-94 62 -37 20 -66 38 -63 40 8 8 140 -62 161 -85 11 -12 16 -21 11 -21 -4 0
34 -43 84 -96 118 -123 151 -174 151 -236 0 -57 25 -88 69 -88 43 0 61 23 61
79 0 53 -17 111 -32 111 -5 0 -6 5 -3 10 3 6 1 10 -6 10 -7 0 -10 3 -6 6 3 4
-1 13 -9 21 -8 8 -12 18 -9 23 3 4 -2 13 -10 20 -9 7 -32 43 -52 79 -20 36
-57 95 -81 131 -34 48 -38 59 -18 40 15 -13 39 -44 54 -67 25 -39 31 -43 67
-43 76 1 235 20 296 35 61 16 62 16 87 -7 15 -13 20 -15 13 -5 -19 25 2 21 25
-5 12 -13 13 -18 4 -13 -9 5 -8 0 4 -13 21 -25 36 -31 16 -7 -20 24 5 17 26
-7 10 -12 13 -18 7 -14 -19 10 -16 1 4 -15 11 -10 14 -10 9 -1 -4 6 -3 12 2
12 11 0 42 -33 42 -45 0 -5 -7 0 -16 11 -12 15 -12 12 2 -12 11 -20 14 -41 10
-58 -10 -42 -96 -131 -158 -165 -38 -21 -59 -40 -66 -59 -16 -46 -7 -52 78
-52 l78 0 40 54 c23 29 79 92 126 139 82 81 93 100 86 147 -1 8 -8 22 -16 30
-7 9 -18 40 -25 69 -11 53 -10 69 20 243 5 32 4 46 -3 45 -6 -1 -12 8 -14 21
-2 12 0 22 5 22 76 -1 358 -79 523 -145 127 -51 162 -60 189 -45 27 14 27 41
-2 68 -33 31 -216 116 -337 156 -119 40 -321 76 -425 76 -38 0 -104 7 -145 17
-87 19 -368 20 -460 2 -30 -6 -112 -13 -182 -16 -71 -3 -128 -9 -128 -14 0
-26 -113 2 -152 38 -10 8 -36 19 -59 23 -36 7 -47 4 -85 -22 -38 -25 -46 -27
-66 -17 -22 12 -22 12 -3 19 22 8 22 8 -43 29 -20 6 -30 6 -27 1 4 -6 1 -10
-5 -10 -15 0 -111 91 -105 100 2 4 -15 17 -38 30 -23 12 -63 40 -89 62 l-48
39 0 -28z m41 -313 c17 0 21 23 5 32 -16 9 -22 28 -8 28 4 -1 18 -10 32 -21
24 -20 24 -21 5 -35 -10 -8 -29 -14 -42 -14 -20 0 -23 5 -22 38 l1 37 10 -32
c6 -18 14 -33 19 -33z m400 -217 c13 -15 12 -15 -8 -4 -24 12 -29 21 -14 21 5
0 15 -7 22 -17z m99 -58 c0 -3 -18 4 -40 15 -22 11 -40 23 -40 25 0 3 18 -4
40 -15 22 -11 40 -23 40 -25z m850 -77 c0 -15 -18 0 -41 35 l-22 32 31 -29
c18 -17 32 -34 32 -38z m-28 -433 c3 -14 1 -25 -3 -25 -5 0 -9 11 -9 25 0 14
2 25 4 25 2 0 6 -11 8 -25z"/>
<path d="M525 6940 c21 -22 41 -40 44 -40 3 0 -13 18 -34 40 -21 22 -41 40
-44 40 -3 0 13 -18 34 -40z"/>
<path d="M2001 6570 c-12 -78 -14 -142 -5 -190 8 -39 20 -44 199 -96 132 -37
225 -78 308 -134 66 -44 87 -75 87 -125 0 -55 17 -69 70 -60 74 12 82 42 37
148 -32 78 -201 223 -339 293 -122 62 -235 133 -291 183 l-54 50 -12 -69z"/>
<path d="M270 5642 c0 -11 10 -39 23 -63 l24 -44 -30 -25 -30 -24 18 27 c13
21 14 27 4 28 -8 0 -44 1 -81 2 l-66 2 16 -28 c18 -31 62 -67 82 -67 6 0 9 -8
6 -17 -3 -10 -8 -35 -11 -55 -4 -20 -16 -44 -26 -54 -29 -26 -24 -65 15 -107
36 -40 41 -41 158 -37 36 1 76 -4 88 -10 18 -10 21 -9 15 1 -6 8 -4 10 6 4 43
-26 78 -59 72 -68 -3 -5 -1 -7 4 -4 14 9 40 -23 41 -48 2 -52 -23 -162 -58
-260 -47 -127 -60 -150 -106 -177 -34 -20 -64 -63 -64 -91 0 -35 98 -36 139
-1 35 29 157 210 220 326 53 97 62 104 106 91 l34 -11 -14 27 c-7 15 -40 47
-72 72 -69 52 -87 72 -113 121 -31 58 -24 56 20 -4 22 -31 68 -78 102 -105 48
-38 68 -62 85 -101 12 -29 17 -50 12 -46 -18 11 109 -218 144 -261 59 -70 188
-101 221 -53 36 51 5 84 -90 97 -59 8 -84 27 -84 64 0 10 -3 16 -7 14 -5 -3
-9 9 -10 26 -1 18 -5 58 -8 89 l-7 58 289 0 c179 0 301 4 318 10 22 9 32 7 49
-7 12 -10 2 3 -20 27 -51 55 -64 80 -63 117 l1 28 7 -30 c18 -74 58 -118 150
-165 34 -17 41 -24 30 -32 -11 -8 -10 -9 4 -4 9 3 38 -4 62 -16 l45 -22 -5
-51 c-3 -27 -8 -64 -11 -82 -5 -36 -48 -93 -69 -93 -58 0 -103 -76 -62 -102
17 -11 91 -10 120 1 25 10 101 126 91 142 -3 5 -1 9 5 9 6 0 7 7 4 17 -5 12
-3 14 7 8 9 -5 11 -4 6 4 -4 6 5 47 20 91 l26 79 -20 78 c-11 43 -24 119 -28
168 -3 50 -13 102 -20 117 -8 15 -14 32 -14 39 0 20 118 2 268 -41 125 -36
182 -56 341 -120 61 -24 109 -23 125 2 18 30 -3 49 -120 110 -190 99 -414 160
-634 172 -73 5 -128 14 -179 31 -104 35 -190 40 -361 20 -277 -32 -305 -34
-352 -30 -26 3 -59 0 -73 -5 -19 -7 -41 -4 -94 15 -51 19 -88 25 -148 25 -46
0 -102 7 -134 17 -30 9 -62 15 -71 14 -10 -1 -19 3 -19 8 -3 20 -5 26 -17 48
-14 26 -93 75 -147 93 -22 7 -50 19 -62 26 -21 13 -23 13 -23 -4z m441 -232
c-13 -11 -30 -20 -39 -20 -19 0 -15 5 23 24 40 21 45 20 16 -4z m-411 -26 c0
-15 6 -24 15 -24 8 0 15 7 15 15 0 8 -4 15 -10 15 -5 0 -10 7 -10 15 0 14 3
13 25 -2 41 -30 27 -53 -31 -53 -21 0 -24 5 -24 36 0 21 4 33 10 29 6 -3 10
-17 10 -31z m726 -346 c23 -45 12 -43 -13 3 -12 21 -17 37 -12 33 5 -3 16 -19
25 -36z m-364 -15 c98 -68 82 -65 -24 5 -36 23 -45 32 -33 32 3 0 29 -17 57
-37z m1151 -493 c3 -11 1 -20 -4 -20 -5 0 -9 9 -9 20 0 11 2 20 4 20 2 0 6 -9
9 -20z"/>
<path d="M2020 5093 c0 -44 19 -141 41 -203 10 -30 18 -49 19 -42 0 6 7 12 15
12 10 0 27 -25 44 -62 43 -94 84 -144 142 -173 55 -28 96 -30 112 -4 17 26 0
65 -33 79 -64 27 -128 132 -150 246 -12 61 -13 62 -64 85 -28 13 -68 39 -88
58 l-38 33 0 -29z"/>
<path d="M1062 4900 c0 -14 2 -19 5 -12 2 6 2 18 0 25 -3 6 -5 1 -5 -13z"/>
<path d="M1837 4859 c7 -7 15 -10 18 -7 3 3 -2 9 -12 12 -14 6 -15 5 -6 -5z"/>
<path d="M1896 4827 c3 -10 9 -15 12 -12 3 3 0 11 -7 18 -10 9 -11 8 -5 -6z"/>
<path d="M2051 4803 c-10 -26 -10 -27 4 -9 8 11 15 23 15 28 0 15 -7 8 -19
-19z"/>
<path d="M250 4232 c0 -4 13 -31 29 -60 l30 -53 -25 -26 c-13 -14 -24 -22 -24
-18 0 5 8 17 17 27 16 18 14 18 -69 16 l-86 -3 20 -27 c23 -34 57 -58 79 -58
13 0 15 -9 11 -52 -2 -29 -13 -65 -23 -80 -28 -39 -23 -62 23 -103 l41 -38
102 7 102 6 40 -32 c21 -18 57 -55 79 -81 21 -27 59 -72 82 -99 l44 -51 -4
-101 c-3 -89 -7 -109 -34 -167 -27 -57 -37 -69 -68 -79 -23 -7 -42 -22 -52
-42 -25 -48 -14 -58 63 -58 81 1 76 -4 170 169 l62 114 11 -43 c6 -23 22 -53
35 -66 22 -22 32 -24 119 -24 74 0 98 4 111 16 9 9 14 21 12 27 -8 25 -57 48
-110 54 l-57 6 0 41 c0 23 3 64 6 92 l7 52 101 6 c55 3 135 9 176 12 47 3 70
2 62 -4 -9 -6 3 -8 35 -5 26 3 74 -2 105 -10 31 -9 65 -13 76 -11 12 4 30 -6
53 -29 42 -42 112 -62 235 -67 7 0 15 -28 19 -67 11 -115 24 -151 64 -183 20
-17 41 -28 48 -26 9 4 10 -1 1 -20 -15 -33 0 -44 63 -44 31 0 55 6 70 19 23
19 24 24 24 163 0 164 -13 234 -47 262 -12 10 -22 23 -20 28 1 5 -1 7 -6 4 -5
-3 -19 5 -30 17 -23 25 -58 178 -46 200 4 6 4 9 0 5 -8 -7 -70 102 -62 109 2
3 11 -8 19 -23 15 -28 16 -28 93 -26 123 4 310 -15 475 -49 83 -16 165 -29
182 -27 45 4 48 37 8 71 -82 68 -443 137 -741 141 -109 2 -149 7 -205 25 -86
27 -233 30 -405 6 -63 -9 -180 -20 -259 -24 -119 -8 -151 -6 -190 6 -25 9 -50
20 -55 24 -6 5 -26 9 -47 9 -122 0 -226 43 -316 130 -53 51 -82 72 -115 80
-23 6 -58 17 -75 25 -18 8 -33 11 -33 7z m50 -249 c0 -10 5 -25 10 -33 9 -13
11 -13 20 0 13 20 13 31 -1 28 -6 -2 -14 3 -16 10 -7 18 9 14 37 -9 24 -20 24
-21 5 -35 -25 -19 -61 -18 -69 2 -9 24 -7 54 4 54 6 0 10 -8 10 -17z m415 -19
c-35 -27 -51 -33 -64 -25 -15 10 -5 18 37 31 41 13 49 11 27 -6z m284 -412
c-1 -21 -2 -22 -6 -7 -3 11 -17 34 -33 50 -49 53 -53 78 -5 30 33 -33 45 -53
44 -73z m750 -44 c26 -16 78 -38 116 -49 66 -20 72 -24 114 -82 56 -78 72
-121 59 -159 -11 -32 -20 -35 -38 -13 -8 10 -11 35 -8 70 4 50 2 58 -31 102
-32 42 -44 50 -109 69 -40 13 -88 32 -107 43 -28 16 -41 18 -67 10 -18 -5 -42
-8 -53 -8 -20 1 -20 1 0 6 11 3 31 9 44 14 l23 9 -36 40 c-49 55 -45 66 6 17
23 -22 62 -53 87 -69z"/>
<path d="M337 2781 c3 -14 14 -42 23 -61 l18 -35 -29 -28 c-33 -32 -40 -25 -8
9 l21 22 -85 4 -85 3 16 -29 c20 -33 59 -66 78 -66 8 0 14 -1 14 -2 -2 -30
-34 -116 -51 -134 -26 -28 -21 -54 20 -104 l30 -35 101 -3 102 -4 20 -46 c11
-26 42 -72 68 -102 26 -30 53 -71 60 -90 11 -33 10 -39 -19 -85 -105 -171
-109 -184 -63 -227 35 -34 72 -48 128 -48 37 0 46 4 53 23 11 30 -6 64 -41 79
-15 7 -28 16 -28 19 0 3 27 27 60 53 l60 47 0 -78 c-1 -117 -13 -162 -49 -192
-22 -18 -31 -35 -31 -55 l0 -28 71 4 c47 2 73 9 80 18 12 20 43 122 74 250 14
58 30 122 36 144 l10 38 57 -8 c31 -5 91 -9 132 -10 145 -2 166 -4 150 -14
-10 -6 1 -8 35 -5 28 2 86 7 130 9 71 5 230 38 243 51 3 3 -10 24 -29 48 -33
41 -33 41 26 -12 37 -33 93 -69 145 -93 47 -22 99 -51 117 -64 17 -13 35 -24
40 -24 4 0 36 -29 71 -64 55 -56 62 -68 62 -102 0 -23 -8 -49 -20 -64 -39 -50
-17 -90 50 -90 46 0 66 14 85 62 17 44 16 74 -9 158 -7 25 -19 70 -26 100 -10
46 -22 65 -73 118 -34 34 -69 62 -77 62 -28 0 -56 42 -84 130 -15 47 -35 96
-45 110 -32 46 -35 56 -12 36 12 -11 32 -21 44 -23 12 -2 58 -10 102 -18 44
-8 134 -21 200 -30 66 -8 172 -27 235 -41 63 -14 131 -26 150 -27 33 -2 35 0
38 30 3 27 -2 34 -29 48 -114 60 -489 138 -734 155 -95 6 -159 16 -200 30 -86
30 -196 35 -375 16 -85 -9 -213 -20 -283 -23 -116 -6 -136 -4 -205 17 -77 23
-215 72 -262 93 -14 6 -29 11 -35 12 -19 1 -35 16 -29 27 4 6 2 8 -3 5 -13 -8
-45 26 -41 44 2 8 -37 33 -99 64 -101 51 -102 51 -96 26z m34 -281 c14 0 23
24 11 28 -12 4 -17 32 -7 32 3 0 16 -9 28 -21 22 -20 22 -21 3 -35 -11 -8 -30
-14 -43 -14 -21 0 -23 4 -22 43 l2 42 10 -37 c6 -21 14 -38 18 -38z m379 28
c-19 -5 -39 -14 -44 -19 -6 -5 -17 -9 -25 -8 -23 1 60 39 84 38 11 -1 5 -5
-15 -11z m921 -355 c13 -16 12 -17 -3 -4 -17 13 -22 21 -14 21 2 0 10 -8 17
-17z m-791 -122 c0 -11 -12 -33 -26 -48 l-26 -28 21 32 c12 17 21 38 21 47 0
9 2 16 5 16 3 0 5 -9 5 -19z m73 2 c-7 -2 -21 -2 -30 0 -10 3 -4 5 12 5 17 0
24 -2 18 -5z m1229 -395 c-5 -7 -12 -22 -15 -33 -5 -20 -5 -20 -6 1 0 11 4 25
11 32 16 16 23 15 10 0z"/>
<path d="M1686 2035 l-70 -21 37 -28 c20 -15 55 -30 77 -33 36 -5 41 -9 36
-27 -17 -60 -27 -150 -22 -180 8 -44 50 -90 71 -78 9 4 31 52 50 105 32 93 67
164 89 179 6 5 2 8 -9 8 -11 0 -33 9 -50 21 -16 11 -55 33 -85 48 l-55 28 -69
-22z"/>
<path d="M1548 2003 c7 -3 16 -2 19 1 4 3 -2 6 -13 5 -11 0 -14 -3 -6 -6z"/>
<path d="M1428 1993 c18 -2 45 -2 60 0 15 2 0 4 -33 4 -33 0 -45 -2 -27 -4z"/>
<path d="M340 1367 c0 -9 8 -38 19 -64 l18 -48 -31 -25 c-28 -22 -29 -22 -12
-2 11 12 16 25 13 29 -4 3 -32 5 -62 4 -30 -1 -65 3 -76 9 -19 11 -19 9 4 -27
13 -21 37 -47 53 -58 l30 -20 -14 -50 c-8 -28 -23 -59 -33 -71 -28 -30 -23
-66 14 -109 33 -38 33 -38 127 -44 l95 -6 30 -60 c42 -82 99 -167 91 -135 -9
35 -20 156 -14 150 3 -3 10 -41 16 -85 6 -45 14 -90 17 -100 5 -14 4 -16 -2
-7 -7 8 -9 1 -9 -23 1 -41 3 -43 16 -12 l9 22 0 -22 c1 -13 -5 -24 -11 -25 -7
0 -18 -2 -25 -2 -7 -1 -61 -33 -120 -73 -79 -52 -114 -82 -130 -110 -28 -51
-37 -97 -23 -123 19 -36 50 -21 95 47 22 34 44 62 49 63 15 0 190 92 197 103
4 5 12 6 19 2 9 -5 11 -4 6 3 -4 8 18 24 63 46 39 19 71 30 71 26 0 -5 -8 -14
-17 -20 -17 -11 -17 -11 -1 -6 27 8 142 -114 178 -189 35 -74 38 -110 11 -118
-23 -6 -55 -63 -47 -83 8 -22 128 -19 149 4 34 38 36 89 6 242 -16 79 -27 145
-25 147 2 2 73 -1 157 -8 85 -6 209 -9 276 -6 l122 6 25 -29 c13 -17 37 -35
51 -40 l27 -10 -24 -20 c-48 -37 -88 -179 -63 -220 12 -20 47 -10 77 23 94
100 117 122 161 154 26 19 71 48 99 63 56 31 55 31 -22 50 -25 7 -91 34 -147
61 -74 36 -109 60 -129 87 -28 37 -28 36 23 -9 54 -48 166 -98 303 -134 78
-21 223 -102 213 -118 -3 -7 -3 -9 2 -5 12 11 66 -31 59 -45 -4 -7 -4 -9 1 -5
9 8 65 -28 65 -42 0 -5 -14 -25 -31 -45 -20 -22 -32 -47 -33 -67 l-1 -33 71
-3 c91 -4 104 7 104 84 0 116 -66 237 -170 312 -36 26 -68 47 -72 48 -5 1 -12
2 -17 3 -13 2 -92 142 -85 152 3 5 2 8 -3 7 -4 -2 -49 37 -98 86 -50 49 -80
82 -69 72 12 -9 34 -19 49 -22 16 -3 46 -16 69 -29 135 -79 511 -174 600 -151
31 8 66 43 66 67 0 23 -38 35 -150 49 -135 16 -258 51 -450 131 -158 65 -178
70 -320 80 -266 20 -318 21 -462 5 -79 -9 -206 -17 -283 -18 l-141 -1 -85 46
c-46 26 -113 56 -148 67 -35 11 -71 26 -79 32 -8 7 -22 13 -31 13 -9 0 -32 24
-51 52 -39 59 -55 72 -120 97 -25 10 -53 25 -62 33 -16 15 -18 15 -18 0z m16
-304 c-1 -1 -8 2 -15 6 -10 7 -12 19 -6 47 l8 39 7 -45 c4 -25 7 -46 6 -47z
m36 50 c24 -21 23 -39 -2 -46 -21 -5 -28 7 -10 18 6 3 10 11 10 16 0 6 -4 8
-9 5 -5 -3 -11 1 -15 9 -7 20 3 19 26 -2z m333 -60 c-16 -8 -40 -25 -52 -36
-24 -22 -31 -13 -10 14 17 22 48 38 72 38 16 0 14 -3 -10 -16z m129 -392 c-4
-17 -9 -30 -11 -27 -3 2 -2 19 2 36 4 17 9 30 11 27 2 -2 1 -18 -2 -36z m1488
-476 c3 -14 1 -25 -3 -25 -5 0 -9 11 -9 25 0 14 2 25 4 25 2 0 6 -11 8 -25z"/>
<path d="M560 1226 c0 -2 8 -10 18 -17 15 -13 16 -12 3 4 -13 16 -21 21 -21
13z"/>
<path d="M760 530 c-8 -5 -10 -10 -5 -10 6 0 17 5 25 10 8 5 11 10 5 10 -5 0
-17 -5 -25 -10z"/>
</g>
</svg>
