<svg height="512pt" viewBox="0 -40 512 512" width="512pt" xmlns="http://www.w3.org/2000/svg"><path d="m449.417969 431.980469h-244.414063c-4.203125 0-7.613281-3.410157-7.613281-7.613281 0-4.203126 3.410156-7.609376 7.613281-7.609376h244.414063c7.085937 0 12.851562-5.765624 12.851562-12.851562s-5.765625-12.851562-12.851562-12.851562h-10.371094c-15.484375 0-28.078125-12.59375-28.078125-28.074219v-4.691407c0-15.480468 12.59375-28.074218 28.078125-28.074218h65.339844c4.207031 0 7.613281 3.40625 7.613281 7.609375s-3.40625 7.613281-7.613281 7.613281h-65.339844c-7.089844 0-12.855469 5.765625-12.855469 12.851562v4.691407c0 7.085937 5.765625 12.851562 12.855469 12.851562h10.371094c15.480469 0 28.074219 12.59375 28.074219 28.074219s-12.59375 28.074219-28.074219 28.074219zm0 0" fill="#d84444"/><path d="m431.980469 215.988281c0 119.289063-96.703125 215.992188-215.992188 215.992188-119.285156 0-215.988281-96.703125-215.988281-215.992188 0-119.285156 96.703125-215.988281 215.988281-215.988281 119.289063 0 215.992188 96.703125 215.992188 215.988281zm0 0" fill="#fc7371"/><path d="m368.71875 63.261719c-50.109375-50.105469-118.707031-70.445313-183.832031-61.023438 44.503906 6.441407 87.382812 26.78125 121.625 61.023438 84.351562 84.347656 84.351562 221.105469 0 305.457031-34.242188 34.242188-77.121094 54.582031-121.625 61.023438 65.125 9.421874 133.722656-10.917969 183.832031-61.023438 84.347656-84.351562 84.347656-221.109375 0-305.457031zm0 0" fill="#d84444"/><path d="m368.71875 63.261719c-50.109375-50.105469-118.707031-70.445313-183.832031-61.023438 44.503906 6.441407 87.382812 26.78125 121.625 61.023438 84.351562 84.347656 84.351562 221.105469 0 305.457031-34.242188 34.242188-77.121094 54.582031-121.625 61.023438 65.125 9.421874 133.722656-10.917969 183.832031-61.023438 84.347656-84.351562 84.347656-221.109375 0-305.457031zm0 0" fill="#d84444"/><path d="m399.929688 102.722656.007812-.003906c-2.648438-4.296875-5.46875-8.519531-8.449219-12.660156-95.90625 63.921875-172.320312 152.601562-220.984375 256.472656-.027344.054688-.054687.113281-.078125.167969l-12.265625 27.941406c-.023437.054687-.050781.113281-.070312.167969-5.914063 14.417968-11.363282 29.253906-16.203125 44.097656 4.78125 1.742188 9.609375 3.3125 14.476562 4.707031 4.710938-14.457031 10.019531-28.902343 15.773438-42.941406l12.191406-27.769531c47.484375-101.308594 122.035156-187.816406 215.601563-250.179688zm0 0" fill="#d84444"/><path d="m354.507812 136.109375c14.585938-11.773437 29.726563-22.925781 45.421876-33.386719l.007812-.003906c-2.648438-4.296875-5.46875-8.519531-8.449219-12.660156-14.929687 9.949218-29.386719 20.503906-43.339843 31.617187 2.300781 4.75 4.421874 9.5625 6.359374 14.433594zm0 0" fill="#c43d3d"/><path d="m342.535156 40.929688c-62.535156 40.058593-116.890625 90.070312-161.585937 148.699218-44.609375 58.523438-78.355469 124.011719-100.335938 194.671875 4.238281 3.414063 8.574219 6.648438 12.996094 9.695313l.722656-2.5625c21.429688-69.957032 54.640625-134.746094 98.726563-192.578125 44.167968-57.945313 98.015625-107.277344 160.050781-146.628907l2.125-1.347656c-4.136719-3.496094-8.371094-6.8125-12.699219-9.949218zm0 0" fill="#d84444"/><path d="m307.9375 64.722656c3.601562 3.667969 7.054688 7.429688 10.339844 11.285156 11.304687-8.289062 22.917968-16.21875 34.832031-23.78125l2.121094-1.347656c-4.136719-3.496094-8.375-6.8125-12.703125-9.945312-11.824219 7.574218-23.359375 15.507812-34.589844 23.789062zm0 0" fill="#c43d3d"/><path d="m270.472656 6.972656c-9.488281 6.421875-18.789062 13.070313-27.882812 19.960938-1.390625-2.109375-2.769532-4.226563-4.128906-6.34375-4.273438-6.65625-8.460938-13.480469-12.496094-20.335938-5.8125-.269531-11.636719-.3085935-17.449219-.109375l1.707031 3.332031c.058594.113282.117188.226563.183594.335938 4.871094 8.421875 10 16.835938 15.246094 25.003906 1.605468 2.503906 3.242187 5.003906 4.894531 7.492188-11.507813 9.164062-22.667969 18.714844-33.476563 28.628906-.386718-.597656-.78125-1.199219-1.160156-1.792969-11.699218-18.21875-22.558594-37.292969-32.308594-56.71875-4.992187 1.242188-9.949218 2.664063-14.859374 4.269531l.445312.953126c.03125.058593.058594.121093.089844.183593 10.171875 20.394531 21.550781 40.425781 33.824218 59.535157.882813 1.382812 1.789063 2.773437 2.695313 4.160156-10.75 10.367187-21.121094 21.113281-31.109375 32.222656-.441406-.683594-.890625-1.367188-1.332031-2.050781-3.464844-5.398438-6.894531-10.929688-10.199219-16.445313l-14.917969-26.375c-6.0625-11.351562-11.847656-23.054687-17.199219-34.789062l-.328124-.753906c-4.445313 2.480468-8.816407 5.136718-13.109376 7.957031 5.382813 11.753906 11.179688 23.46875 17.25 34.839843.03125.054688.058594.109376.089844.164063l15.011719 26.53125c.03125.054687.0625.109375.09375.160156 3.398437 5.683594 6.929687 11.378907 10.5 16.9375 1.226563 1.90625 2.46875 3.816407 3.722656 5.722657-7.148437 8.367187-14.109375 16.910156-20.824219 25.664062-2.632812 3.429688-5.226562 6.886719-7.785156 10.371094-1.640625-2.472656-3.265625-4.953125-4.855468-7.429688-17-26.480468-32.125-54.5625-44.960938-83.480468l-1.203125-2.855469c-.457031.449219-.921875.890625-1.378906 1.34375-3.46875 3.472656-6.78125 7.039062-9.96875 10.679687 12.855469 28.566406 27.871093 56.324219 44.699219 82.535156 2.671874 4.164063 5.433593 8.316407 8.21875 12.433594-9.097657 13.074219-17.683594 26.46875-25.742188 40.171875-4.179688-6.023437-8.273438-12.132812-12.21875-18.277343-14.753906-22.976563-28.128906-47.222657-39.757812-72.070313l-2.421876-5.695313c-3.167968 5.839844-6.054687 11.792969-8.644531 17.84375 11.269531 23.464844 24.027344 46.367188 38.015625 68.148438 5.34375 8.324219 10.957032 16.597656 16.695313 24.671875-8.019531 14.519531-15.472657 29.355469-22.328125 44.492187-8.425782-11.320312-16.507813-22.996093-24.113282-34.835937-6.523437-10.160156-12.832031-20.65625-18.75-31.191406l-5.535156-10.761719c-1.109375 9.726562-1.5625 19.511719-1.3515622 29.285156 4.1523442 7.050782 8.4335942 14.050782 12.8281252 20.894532 9.351562 14.5625 19.414062 28.878906 29.9375 42.621093-5.304688 12.628907-10.183594 25.460938-14.683594 38.46875 3.195313 5.621094 6.648437 11.128907 10.390625 16.503907l1.902344-5.453126c.011718-.03125.023437-.0625.035156-.09375 5.375-16.085937 11.386719-31.886718 18.019531-47.378906.042969-.09375.078125-.1875.117188-.28125 8.632812-20.136718 18.316406-39.746094 29.015625-58.78125.03125-.054687.058594-.109375.089844-.164062 14.175781-25.207032 30.132812-49.402344 47.8125-72.449219 7.761718-10.113281 15.824218-19.96875 24.171874-29.554687l.023438-.023438c36.257812-41.609375 78-78.148438 124.480469-108.917969l5.1875-3.257812c-6.230469-2.25-12.542969-4.199219-18.914063-5.851563zm0 0" fill="#d84444"/><path d="m225.960938.246094c-5.8125-.2656252-11.632813-.3046878-17.449219-.105469v.003906l1.710937 3.332031c.058594.113282.117188.226563.183594.335938.855469 1.480469 1.726562 2.953125 2.597656 4.429688 7.628906 2.167968 15.164063 4.769531 22.566406 7.789062-3.273437-5.199219-6.484374-10.480469-9.609374-15.785156zm0 0" fill="#c43d3d"/><path d="m270.480469 6.964844c-7.25 4.90625-14.390625 9.949218-21.410157 15.128906 5.023438 2.46875 9.96875 5.148438 14.828126 8.03125 6.664062-4.800781 13.421874-9.496094 20.300781-14.046875l5.191406-3.261719c-.003906 0-.007813-.003906-.011719-.003906-6.191406-2.234375-12.460937-4.183594-18.792968-5.832031-.035157-.007813-.074219-.007813-.105469-.015625zm0 0" fill="#c43d3d"/><path d="m356.101562 231.164062c10.355469-10.765624 21.113282-21.167968 32.261719-31.179687 12.839844 9.191406 26.148438 17.980469 39.652344 26.183594l3.597656 2.171875c.335938-5.882813.445313-11.773438.300781-17.664063-10.773437-6.660156-21.414062-13.679687-31.757812-20.988281 8.621094-7.359375 17.460938-14.488281 26.507812-21.382812-1.199218-5.335938-2.609374-10.628907-4.21875-15.875l-2.332031 1.71875c-12.667969 9.542968-24.917969 19.546874-36.769531 29.960937-.328125.242187-.632812.519531-.921875.816406-75.394531 66.507813-133.824219 150.117188-170.285156 244.28125-.039063.097657-.074219.191407-.105469.289063l-.828125 2.429687c5.441406.117188 10.886719.027344 16.324219-.261719 5.683594-14.445312 11.902344-28.628906 18.625-42.535156 15.71875 10.019532 32.011718 19.410156 48.589844 28.023438 6.125-2.394532 12.164062-5.074219 18.09375-8.046875l-5.46875-2.578125c-18.597657-9.417969-36.855469-19.871094-54.382813-31.105469 6.699219-13.015625 13.847656-25.765625 21.4375-38.234375 25.085937 16.964844 51.605469 32.21875 78.960937 45.460938 4.191407-3.460938 8.277344-7.101563 12.257813-10.929688l-2.570313-1.277344c-.039062-.015625-.074218-.035156-.109374-.054687-27.910157-13.324219-54.9375-28.820313-80.449219-46.101563 7.9375-12.335937 16.3125-24.371094 25.109375-36.097656 27.152344 19.085938 56.035156 36.148438 85.964844 50.785156 2.929687-4.21875 5.691406-8.519531 8.285156-12.890625l-.683594-.332031c-29.335938-14.289062-57.648438-30.96875-84.269531-49.636719 9.148437-11.582031 18.71875-22.839843 28.691406-33.746093 23.152344 16.585937 47.621094 31.742187 72.859375 45.074218l1.167969.644532c1.726562-4.890626 3.273437-9.828126 4.636719-14.808594-23.574219-12.527344-46.460938-26.671875-68.171876-42.113282zm0 0" fill="#d84444"/><g fill="#c43d3d"><path d="m353.003906 299.542969c-1.964844 4.695312-4.105468 9.332031-6.417968 13.90625 15.300781 9.152343 30.996093 17.695312 47.003906 25.523437 2.925781-4.21875 5.6875-8.519531 8.28125-12.890625l-.683594-.332031c-16.425781-8.003906-32.515625-16.777344-48.183594-26.207031zm0 0"/><path d="m362.960938 370.386719c-13.410157-6.402344-26.613282-13.320313-39.546876-20.683594-3.179687 4.023437-6.515624 7.960937-10.023437 11.800781 13.078125 7.519532 26.433594 14.582032 39.996094 21.144532 4.1875-3.460938 8.269531-7.109376 12.246093-10.933594l-2.5625-1.273438c-.035156-.019531-.074218-.035156-.109374-.054687zm0 0"/><path d="m307.367188 406.527344c-9.347657-4.734375-18.609376-9.730469-27.738282-14.957032-4.632812 3.328126-9.363281 6.445313-14.1875 9.363282 9.625 5.660156 19.410156 11.082031 29.300782 16.21875.011718-.003906.027343-.003906.039062-.007813 6.113281-2.386719 12.132812-5.078125 18.046875-8.042969zm0 0"/><path d="m424.273438 273.277344c-19.148438-10.175782-37.832032-21.433594-55.8125-33.574219-.609376 5.570313-1.433594 11.125-2.476563 16.640625 16.980469 11.191406 34.53125 21.613281 52.488281 31.097656l1.164063.644532c1.730469-4.890626 3.273437-9.832032 4.636719-14.808594zm0 0"/><path d="m227.496094 431.667969c.011718 0 .019531-.003907.03125-.003907 1.972656-5.015624 4.035156-9.988281 6.132812-14.941406-6.308594 2.507813-12.714844 4.703125-19.191406 6.59375-.785156 1.960938-1.570312 3.921875-2.332031 5.890625-.039063.097657-.074219.191407-.109375.289063l-.820313 2.414062c5.429688.117188 10.863281.046875 16.289063-.242187zm0 0"/><path d="m369.757812 217.433594c6.078126-5.933594 12.269532-11.761719 18.605469-17.449219 12.839844 9.191406 26.148438 17.980469 39.652344 26.183594l3.597656 2.171875c.335938-5.882813.445313-11.773438.300781-17.664063-10.773437-6.660156-21.414062-13.679687-31.757812-20.988281 8.621094-7.359375 17.460938-14.488281 26.507812-21.382812-1.199218-5.335938-2.609374-10.628907-4.21875-15.875l-2.332031 1.71875c-12.667969 9.542968-24.917969 19.546874-36.769531 29.960937-.328125.242187-.632812.519531-.921875.816406-4.554687 4.019531-9.046875 8.101563-13.476563 12.246094.585938 6.738281.859376 13.5.8125 20.261719zm0 0"/></g></svg>